<?xml version="1.0" standalone="no"?>
<!DOCTYPE svg PUBLIC "-//W3C//DTD SVG 20010904//EN"
 "http://www.w3.org/TR/2001/REC-SVG-20010904/DTD/svg10.dtd">
<svg version="1.0" xmlns="http://www.w3.org/2000/svg"
 width="3500.000000pt" height="2200.000000pt" viewBox="0 0 3500.000000 2200.000000"
 preserveAspectRatio="xMidYMid meet">

<g transform="translate(0.000000,2200.000000) scale(0.100000,-0.100000)"
fill="#000000" stroke="none">
<path d="M17241 21243 c-22 -60 -39 -114 -86 -266 -14 -49 -32 -90 -39 -93 -8
-3 -19 -39 -26 -80 -7 -41 -17 -77 -21 -80 -5 -3 -9 -15 -9 -27 0 -12 -9 -47
-20 -77 -11 -30 -20 -63 -20 -72 0 -36 -77 -195 -113 -233 -34 -36 -37 -44
-37 -97 0 -50 -19 -133 -62 -263 -25 -79 -38 -140 -38 -181 0 -25 -5 -55 -12
-67 -6 -12 -15 -38 -19 -57 -14 -67 -42 -165 -48 -170 -3 -3 -7 -18 -7 -35 -1
-16 -12 -59 -23 -95 -49 -149 -61 -189 -61 -206 -1 -11 -8 -37 -16 -59 -15
-38 -33 -98 -69 -229 -9 -33 -25 -71 -36 -84 -14 -18 -19 -41 -19 -85 0 -53
-6 -83 -28 -147 -3 -8 -6 -17 -7 -20 -10 -34 -15 -146 -7 -164 9 -20 5 -29
-29 -66 -21 -23 -39 -48 -40 -54 -9 -119 -9 -116 10 -116 10 0 29 12 42 26 13
14 33 29 45 34 32 13 255 -36 316 -70 10 -6 30 -10 44 -10 21 0 25 -4 21 -20
-3 -10 0 -23 7 -28 6 -5 143 -53 305 -107 362 -120 639 -238 911 -389 962
-535 1460 -820 1583 -905 93 -65 123 -81 172 -90 32 -6 61 -11 63 -11 2 0 2
-6 -1 -14 -5 -13 10 -35 57 -86 31 -33 434 -308 476 -324 25 -10 70 -33 100
-51 30 -18 107 -59 170 -90 360 -179 933 -514 1026 -600 l49 -44 -65 -64 -65
-63 -219 -63 c-490 -139 -806 -309 -806 -432 0 -28 -1 -29 -37 -24 -21 3 -96
12 -166 19 -128 12 -129 12 -235 -16 -59 -15 -117 -28 -128 -28 -14 0 -31 -14
-48 -40 -31 -47 -25 -46 -211 -25 -118 14 -137 13 -204 -1 l-73 -17 -22 27
c-19 24 -37 30 -170 56 l-150 28 -58 -29 c-31 -16 -60 -29 -63 -29 -3 0 -3
152 1 338 l6 337 -62 225 c-34 124 -68 230 -75 235 -7 6 -109 26 -226 44
l-214 33 -54 -21 c-61 -25 -66 -23 -109 43 -25 38 -27 48 -26 149 1 66 6 113
13 120 7 7 11 64 11 172 l0 161 -84 105 c-46 57 -115 134 -153 171 -61 60 -78
70 -173 106 -150 56 -242 77 -271 62 -24 -13 -25 -12 -55 37 -10 15 -15 16
-33 6 -30 -19 -40 -16 -51 13 -9 22 -4 37 24 91 l35 66 -20 38 c-10 21 -39 61
-63 88 -24 27 -47 63 -50 79 -9 38 -74 100 -160 152 l-69 42 -126 -1 c-72 -1
-127 -6 -129 -11 -2 -6 -17 -10 -33 -10 -16 0 -29 -4 -29 -10 0 -5 -11 -10
-25 -10 -14 0 -25 -4 -25 -10 0 -5 -9 -10 -21 -10 -12 0 -34 -13 -49 -30 -15
-16 -33 -30 -38 -30 -6 0 -12 -6 -15 -12 -2 -8 -21 -13 -50 -12 -26 0 -47 -3
-47 -8 0 -4 -7 -8 -15 -8 -8 0 -15 -8 -15 -17 0 -15 2 -15 9 -4 8 13 17 12 64
-4 49 -17 54 -20 44 -37 -7 -10 -28 -23 -48 -28 -48 -13 -66 -36 -74 -92 -6
-39 -4 -49 9 -54 9 -4 16 -18 16 -33 0 -20 7 -31 24 -39 20 -9 25 -20 30 -74
4 -35 12 -94 17 -133 13 -88 7 -240 -11 -283 -14 -32 -14 -33 22 -67 20 -19
39 -35 43 -35 15 0 75 -57 75 -72 0 -26 -11 -48 -24 -48 -6 0 -18 -9 -26 -20
-8 -11 -21 -20 -30 -20 -9 0 -22 -9 -30 -20 -8 -11 -25 -20 -37 -20 -13 0 -23
-4 -23 -10 0 -5 -9 -10 -20 -10 -11 0 -20 -4 -20 -10 0 -5 -16 -10 -35 -10
-19 0 -35 -4 -35 -10 0 -5 -6 -10 -13 -10 -7 0 -19 -9 -27 -20 -9 -13 -26 -20
-45 -20 -28 0 -34 6 -56 51 -25 53 -86 115 -151 151 -41 23 -42 27 -39 123 2
43 -3 73 -18 105 -25 56 -73 110 -96 110 -14 0 -16 6 -10 38 4 20 11 42 16 48
8 10 155 505 294 991 42 148 45 164 31 179 -9 8 -16 20 -16 25 0 5 -12 9 -26
9 -19 0 -28 -7 -37 -30 -6 -17 -19 -32 -29 -35 -9 -3 -20 -20 -24 -38 -3 -17
-10 -38 -15 -47 -12 -20 -39 -96 -50 -140 -5 -19 -17 -71 -28 -115 -11 -44
-34 -132 -51 -195 -17 -63 -35 -131 -39 -150 -5 -19 -13 -46 -19 -60 -6 -14
-18 -52 -27 -85 -18 -65 -44 -158 -69 -244 -9 -29 -16 -63 -16 -75 0 -40 -14
-49 -65 -44 -42 5 -51 2 -81 -24 -21 -18 -38 -46 -45 -71 -6 -23 -26 -59 -45
-79 -31 -34 -34 -44 -34 -97 0 -33 -5 -63 -11 -67 -14 -8 -4 -62 15 -83 8 -9
17 -31 21 -48 8 -39 38 -63 77 -63 24 0 28 -4 28 -29 0 -15 3 -49 6 -74 6 -40
4 -47 -20 -68 -14 -12 -29 -37 -32 -55 -3 -18 -19 -47 -36 -64 -38 -40 -49
-77 -198 -640 -144 -543 -130 -513 -250 -507 -41 2 -81 1 -90 -3 -77 -39 -124
-60 -133 -60 -17 -1 -43 -40 -51 -77 -4 -17 -7 -112 -8 -210 0 -98 -4 -186
-10 -196 -7 -14 -16 -16 -46 -11 -20 4 -46 12 -57 18 -11 6 -38 11 -60 11 -22
1 -44 2 -50 4 -5 2 -35 2 -65 1 -52 -2 -53 -2 -22 -11 34 -10 44 -29 15 -29
-14 -1 -287 -27 -301 -29 -2 -1 1 -7 5 -15 4 -8 6 -39 5 -69 -4 -61 0 -57
-104 -91 l-48 -15 -1 47 c-1 26 -3 40 -6 30 -3 -13 -23 -17 -101 -23 -135 -9
-128 -5 -124 -73 l4 -59 -53 -21 c-28 -12 -57 -22 -63 -22 -6 0 -17 -9 -23
-19 -14 -23 6 -45 50 -56 34 -9 34 -18 -3 -65 -16 -21 -30 -43 -30 -49 0 -6
-8 -11 -17 -12 -20 0 -66 -53 -66 -75 0 -7 -45 -53 -100 -100 l-99 -87 -26 26
-25 26 -57 -45 c-32 -25 -68 -56 -80 -69 -17 -18 -34 -25 -61 -25 -41 0 -65
-22 -89 -80 -10 -24 -17 -29 -32 -24 -50 16 -135 21 -172 10 -37 -11 -50 -27
-205 -257 -91 -135 -230 -351 -309 -481 -117 -195 -142 -241 -136 -262 3 -14
11 -26 17 -26 16 0 307 -171 303 -178 -2 -4 -49 -92 -106 -197 -56 -104 -111
-198 -123 -208 -12 -11 -31 -17 -43 -14 -17 3 -39 -13 -96 -71 -40 -41 -64
-70 -53 -64 11 5 46 12 77 16 54 6 81 14 135 39 25 12 38 5 30 -16 -4 -11
-103 -39 -202 -57 -27 -5 -30 -9 -30 -44 0 -42 -21 -62 -27 -25 -2 18 -10 11
-43 -37 -28 -40 -51 -61 -75 -70 -28 -10 -31 -13 -12 -13 17 -1 22 -6 20 -18
-2 -10 -10 -17 -17 -15 -6 1 -37 -4 -67 -12 -29 -8 -55 -12 -55 -10 -1 2 -2 9
-3 14 -1 11 -25 30 -38 30 -21 0 -56 -53 -72 -110 -6 -20 -5 -22 4 -10 8 12
10 5 8 -30 -3 -38 -6 -45 -25 -48 -13 -2 -23 -6 -23 -9 0 -4 27 -39 60 -80 47
-57 62 -83 66 -117 6 -37 24 -64 138 -198 72 -84 147 -177 166 -205 29 -44 38
-51 60 -47 23 5 33 -6 105 -105 80 -110 80 -110 202 -183 l123 -73 151 -200
c84 -110 168 -228 187 -263 l34 -63 -16 -43 -17 -44 -95 -8 -96 -9 -39 -104
c-21 -57 -39 -105 -39 -107 0 -2 23 0 50 3 41 5 50 3 50 -10 0 -22 -17 -31
-70 -37 -48 -5 -48 -6 -39 -75 4 -29 2 -30 -36 -33 -64 -5 -85 -47 -101 -197
-10 -100 -10 -132 1 -178 10 -44 11 -75 3 -130 -7 -52 -7 -87 2 -126 11 -49
10 -58 -9 -100 l-22 -46 24 -315 c13 -173 23 -316 22 -318 -1 -1 -98 9 -216
23 -255 30 -569 34 -824 10 -88 -8 -245 -15 -350 -15 l-190 0 -232 -53 c-201
-46 -234 -51 -247 -39 -12 12 -23 12 -77 -2 -35 -8 -102 -23 -149 -32 -46 -8
-91 -19 -100 -24 -8 -4 -60 -13 -115 -19 -145 -17 -254 -41 -305 -67 -37 -20
-144 -38 -629 -109 -385 -57 -724 -113 -995 -166 -642 -124 -1207 -207 -1981
-289 -363 -39 -850 -95 -1082 -125 l-421 -54 -97 15 c-76 12 -99 13 -111 3 -8
-7 -56 -16 -107 -21 -138 -14 -244 -26 -327 -38 -41 -6 -116 -14 -166 -18 -50
-4 -97 -12 -105 -18 -32 -27 -333 -84 -438 -84 -55 0 -99 -10 -216 -48 -36
-12 -106 -18 -245 -23 -107 -3 -215 -11 -240 -18 -25 -7 -65 -16 -90 -21 -64
-13 -120 -26 -160 -40 -56 -19 -141 -38 -260 -58 -25 -4 -60 -16 -79 -25 -19
-9 -57 -17 -85 -17 -34 0 -61 -7 -81 -20 -19 -12 -47 -20 -74 -20 -25 0 -58
-4 -75 -9 -17 -6 -56 -17 -86 -27 -64 -19 -128 -32 -220 -43 -36 -4 -85 -15
-110 -24 -25 -9 -61 -17 -80 -17 -19 0 -55 -8 -80 -17 -51 -18 -114 -31 -210
-41 -36 -4 -81 -15 -100 -24 -19 -9 -48 -19 -65 -23 -54 -11 -129 -26 -185
-35 -30 -5 -80 -14 -110 -21 -30 -6 -185 -15 -345 -19 -160 -4 -293 -8 -297
-9 -5 0 -8 -1331 -8 -2956 l0 -2955 17500 0 17500 0 0 1954 0 1953 -47 8
c-147 22 -386 39 -740 52 -189 8 -203 9 -225 30 -26 24 -38 25 -293 26 -241 0
-469 -29 -530 -67 -11 -7 -45 -19 -75 -26 -30 -8 -59 -17 -64 -22 -6 -4 -20
-8 -32 -8 -13 0 -26 -5 -29 -10 -3 -6 -16 -10 -29 -10 -12 0 -27 -5 -34 -12
-16 -16 -112 -15 -202 2 -41 8 -102 13 -135 11 -225 -13 -548 4 -599 32 -16 9
-95 83 -177 165 l-147 149 -59 6 c-129 13 -213 27 -234 39 -12 7 -49 39 -82
71 -32 31 -63 57 -68 57 -19 0 -714 706 -725 735 -7 22 -15 29 -30 27 -10 -2
-50 -6 -89 -9 -66 -5 -72 -7 -115 -48 -35 -34 -60 -48 -110 -61 -36 -10 -73
-25 -84 -33 -14 -12 -48 -17 -150 -19 -125 -4 -132 -5 -159 -30 -23 -22 -40
-27 -125 -35 -53 -6 -152 -10 -219 -11 -116 -1 -123 0 -148 24 -26 24 -33 25
-198 31 -95 4 -190 12 -212 19 -22 7 -100 15 -172 19 l-133 6 -87 88 -88 87
-148 0 -147 0 0 -25 0 -25 -237 -2 c-131 -1 -258 -1 -282 0 -29 1 -53 -4 -70
-15 -17 -12 -57 -21 -116 -25 -303 -25 -269 -18 -322 -69 -26 -25 -61 -51 -78
-59 -16 -8 -41 -22 -54 -32 -33 -25 -125 -24 -179 2 -22 11 -48 20 -57 20 -9
0 -60 14 -113 31 -146 46 -156 49 -185 49 -24 0 -90 31 -142 66 -11 8 -42 14
-70 14 -31 0 -68 8 -93 20 -22 11 -50 20 -61 20 -17 0 -20 8 -23 47 l-3 48
-55 7 c-39 5 -59 3 -70 -7 -8 -7 -31 -16 -50 -20 -19 -4 -51 -16 -70 -26 -27
-15 -56 -19 -132 -19 -79 0 -100 -3 -114 -18 -19 -19 -40 -19 -357 -7 -144 6
-171 4 -192 -9 -20 -13 -55 -16 -184 -16 -143 0 -164 -2 -193 -20 -31 -19 -51
-20 -355 -20 l-322 0 -46 40 -46 40 -184 0 c-215 0 -256 11 -298 77 -31 49
-92 103 -116 103 -10 0 -26 9 -35 19 -10 11 -37 29 -61 40 -70 33 -91 67 -99
158 -10 112 4 149 71 188 39 23 57 41 73 75 11 25 29 61 40 80 10 19 19 45 20
58 0 23 20 60 51 97 25 30 42 119 36 189 -7 78 -21 125 -51 169 -13 19 -27 44
-31 56 -6 21 -4 21 147 23 84 0 160 1 168 0 8 -1 50 -2 93 -3 106 -3 108 -1
136 181 12 80 26 165 31 190 28 138 44 252 45 305 0 54 -2 61 -24 70 -22 10
-23 13 -17 80 3 39 11 95 17 125 6 30 12 64 15 76 2 13 18 26 42 36 l38 15 17
99 c19 118 53 331 62 395 6 40 2 54 -30 115 -73 138 -76 142 -135 166 -30 12
-78 32 -107 45 l-51 23 -1 59 c0 33 -7 83 -15 112 -13 43 -14 71 -6 160 7 89
6 115 -5 143 -8 20 -15 50 -15 68 0 51 -22 73 -107 108 -43 18 -96 40 -118 50
-22 10 -50 21 -62 24 -30 10 -35 30 -21 98 10 48 19 65 44 84 17 13 39 42 49
64 16 36 22 40 64 45 25 3 53 10 61 16 8 5 24 13 35 18 11 5 36 25 55 45 36
39 42 70 25 156 -6 31 -4 37 19 49 27 15 46 57 46 100 0 20 10 32 40 51 22 14
40 28 40 32 0 5 7 8 15 8 8 0 15 8 15 18 -1 44 -192 564 -219 596 -15 18 -67
18 -147 1 l-32 -7 -7 74 c-3 40 -7 102 -8 138 -3 80 -26 130 -62 130 -46 0
-60 24 -186 320 -11 25 -26 56 -35 70 -19 33 -37 72 -65 143 -19 49 -21 63
-12 88 10 25 9 37 -4 65 -14 28 -22 34 -49 34 -30 0 -34 4 -43 38 -6 20 -11
42 -11 48 0 6 -9 21 -20 34 -19 22 -20 39 -22 377 -1 194 -2 363 -2 376 -1 21
2 22 64 19 36 -2 68 -6 72 -10 4 -4 10 -126 14 -272 4 -148 11 -271 17 -277
11 -15 164 -18 186 -4 12 8 13 83 8 493 -7 515 -13 637 -31 639 -6 1 -23 2
-37 3 -28 2 -51 20 -62 49 -5 12 -18 17 -49 17 -36 0 -45 -4 -54 -24 -7 -14
-8 -30 -3 -38 13 -19 11 -86 -2 -90 -9 -3 -9 -9 -1 -24 12 -23 20 -284 8 -302
-10 -17 -110 -16 -125 2 -8 10 -11 62 -9 170 2 86 -1 156 -5 156 -5 0 -7 21
-5 48 l3 47 -45 -2 c-57 -2 -65 4 -47 30 32 51 23 92 -25 110 -40 15 -9 46 52
52 8 1 21 3 28 4 13 1 17 27 5 33 -5 2 -19 25 -32 51 -32 63 -73 107 -100 107
-12 0 -21 5 -21 10 0 6 -9 10 -20 10 -11 0 -20 5 -20 10 0 6 -7 10 -15 10 -8
0 -15 5 -15 10 0 6 -12 10 -26 10 -15 0 -34 8 -43 18 -9 10 -31 25 -48 33 -19
8 -33 21 -33 31 0 9 -7 21 -16 26 -29 16 -6 34 35 28 89 -13 111 -19 111 -27
0 -5 7 -9 15 -9 9 0 25 -9 37 -20 12 -11 28 -20 35 -20 7 0 13 -4 13 -10 0 -5
9 -10 20 -10 11 0 20 -4 20 -10 0 -5 9 -10 20 -10 11 0 20 -4 20 -10 0 -5 6
-10 14 -10 15 0 92 -73 133 -128 14 -18 29 -47 32 -65 6 -27 12 -32 39 -35 25
-3 33 -9 38 -30 10 -39 23 -52 55 -52 21 0 27 4 23 15 -10 25 16 45 57 45 44
0 45 2 25 76 -23 87 -77 174 -161 263 -77 80 -87 87 -260 174 -99 50 -196 92
-215 94 -19 2 -62 5 -96 7 -74 5 -106 26 -98 66 7 32 -8 43 -235 169 -167 92
-182 97 -278 92 -17 -1 -34 3 -38 9 -3 5 -25 10 -49 10 -56 0 -101 22 -161 78
-13 12 -33 22 -45 22 -11 0 -20 7 -20 15 0 8 -2 15 -5 15 -2 0 -30 7 -62 16
-39 10 -100 16 -188 15 l-130 0 55 20 c64 23 219 59 254 59 17 0 27 -9 36 -30
10 -25 18 -30 48 -30 52 0 135 26 242 77 174 82 534 274 609 325 l74 50 171
-82 c210 -101 679 -314 762 -345 33 -13 84 -28 112 -33 43 -8 52 -7 52 5 0 44
-52 101 -298 330 -147 137 -332 311 -412 388 -80 77 -192 183 -249 235 -57 52
-128 128 -158 168 -47 64 -53 77 -45 100 11 33 67 56 205 83 114 22 219 24
622 9 248 -10 343 -17 477 -37 33 -5 37 -3 35 15 -3 44 -392 284 -765 472
-325 165 -433 212 -440 192 -4 -14 -42 -16 -42 -2 0 6 -20 10 -45 10 -34 0
-47 -4 -52 -17 -6 -15 -8 -14 -13 6 -3 13 -14 29 -25 35 -11 6 -22 14 -25 17
-3 3 -21 14 -40 25 -19 10 -37 20 -39 21 -2 2 0 8 6 15 5 7 9 18 9 25 -1 15
-41 53 -57 53 -6 0 -9 6 -6 13 6 16 10 13 -196 129 -89 50 -299 170 -467 267
-168 98 -386 222 -485 276 -99 54 -252 137 -340 185 -88 48 -185 100 -215 117
-30 16 -222 120 -425 231 -298 162 -378 202 -409 202 -31 0 -44 7 -75 40 -20
22 -42 40 -48 40 -6 0 -17 13 -25 29 -18 39 -189 231 -205 231 -7 0 -31 18
-54 40 -23 22 -47 40 -53 40 -6 0 -5 -4 2 -9 11 -6 10 -9 -5 -13 -10 -3 -24 1
-30 7 -16 18 -98 28 -122 16 -11 -6 -22 -21 -24 -33 -2 -13 -5 -5 -6 18 -1 56
-46 151 -90 193 -73 68 -93 81 -125 81 -17 0 -43 8 -56 17 -14 10 -41 27 -60
38 -78 45 -96 59 -122 96 -15 22 -39 41 -55 45 -15 4 -51 20 -81 36 -30 15
-58 28 -63 28 -5 0 -47 18 -94 40 -47 22 -88 40 -92 40 -3 0 -14 -7 -24 -16
-14 -13 -26 -14 -56 -7 l-38 9 4 53 c3 53 3 54 -20 46 -47 -14 -89 -17 -89 -6
0 6 -13 11 -30 11 -19 0 -34 7 -42 20 -7 11 -23 20 -35 20 -13 0 -23 5 -23 10
0 6 -13 10 -28 10 -16 0 -38 9 -50 20 -13 12 -35 20 -57 20 -19 0 -35 5 -35
10 0 6 -7 10 -15 10 -8 0 -15 3 -15 8 0 11 -51 32 -77 32 -13 0 -28 9 -35 20
-7 11 -19 20 -26 20 -7 0 -20 7 -29 16 -9 8 -22 13 -29 10 -8 -3 -14 -1 -14 4
0 6 -11 10 -25 10 -14 0 -25 5 -25 10 0 6 -9 10 -20 10 -11 0 -20 4 -20 10 0
5 -11 12 -25 16 -14 3 -25 10 -25 15 0 5 -78 47 -172 95 -95 47 -180 94 -188
104 -8 10 -27 22 -42 25 -22 6 -28 13 -28 34 1 34 24 98 43 119 17 18 22 37
62 207 16 68 41 141 66 192 40 80 41 84 30 131 -9 36 -9 66 -1 117 12 76 80
325 107 390 9 22 17 65 18 95 1 30 18 116 37 190 36 135 55 230 45 230 -2 0
-14 -26 -26 -57z m1984 -2923 c3 -5 1 -10 -4 -10 -6 0 -11 5 -11 10 0 6 2 10
4 10 3 0 8 -4 11 -10z m695 -1660 c0 -5 -2 -10 -4 -10 -3 0 -8 5 -11 10 -3 6
-1 10 4 10 6 0 11 -4 11 -10z m15 -40 c-3 -5 -11 -10 -16 -10 -6 0 -7 5 -4 10
3 6 11 10 16 10 6 0 7 -4 4 -10z m2950 -729 c-12 -31 -21 7 -16 69 l4 65 9
-60 c4 -33 6 -66 3 -74z m-7022 -35 c9 -7 17 -20 17 -29 0 -9 13 -31 28 -49
34 -39 52 -87 52 -138 0 -47 55 -122 102 -140 32 -12 175 -28 307 -35 60 -3
65 -5 77 -33 10 -25 34 -42 64 -47 34 -5 80 -91 80 -151 0 -28 -5 -36 -27 -45
-71 -27 -117 -56 -173 -107 -60 -54 -62 -55 -110 -49 -42 5 -58 2 -106 -23
-45 -24 -68 -30 -121 -30 -67 0 -91 -10 -153 -67 -14 -13 -28 -23 -32 -23 -14
0 -77 -72 -93 -106 -8 -18 -15 -42 -15 -54 0 -25 -27 -80 -39 -80 -31 0 -83
30 -124 71 -40 40 -55 49 -84 49 -29 0 -34 3 -28 18 3 9 20 69 37 132 17 63
38 138 45 165 21 72 48 167 76 270 14 50 46 162 72 250 26 88 49 169 52 180
18 75 24 85 51 85 15 0 35 -7 45 -14z m649 -388 c-7 -7 -12 -8 -12 -2 0 14 12
26 19 19 2 -3 -1 -11 -7 -17z m5608 -3 c0 -7 -7 -16 -15 -19 -20 -7 -33 23
-14 34 16 10 29 4 29 -15z m-4760 -71 c0 -65 -16 -69 -37 -9 -12 36 -12 41 4
52 28 21 33 15 33 -43z m4500 6 c0 -5 -5 -10 -11 -10 -5 0 -7 5 -4 10 3 6 8
10 11 10 2 0 4 -4 4 -10z m-5045 -119 c-5 -24 -2 -33 14 -43 20 -12 21 -22 21
-150 0 -127 -1 -138 -20 -148 -23 -13 -27 -40 -5 -40 8 0 15 -4 15 -10 0 -5
-13 -10 -28 -10 -16 0 -37 -7 -48 -15 -27 -20 -34 -19 -34 10 0 22 -4 25 -34
25 -37 0 -46 -12 -46 -60 0 -19 -7 -33 -21 -40 -27 -15 -38 -4 -14 14 21 15
14 46 -10 46 -10 0 -15 10 -15 34 0 49 17 89 35 82 19 -7 30 12 15 29 -15 18
9 57 45 73 28 13 27 11 16 70 -7 37 -6 42 10 42 24 0 30 21 11 42 -14 17 -11
50 5 47 27 -5 64 3 75 16 19 21 20 19 13 -14z m316 -114 c-5 -5 -17 -7 -26 -3
-14 5 -15 9 -5 21 10 12 16 13 27 4 9 -8 10 -16 4 -22z m4853 -76 c-14 -14
-198 -111 -294 -155 -47 -21 -140 -66 -208 -99 -67 -33 -125 -57 -128 -54 -5
5 22 20 311 173 137 72 317 154 324 147 3 -2 0 -7 -5 -12z m-5424 -11 c0 -5
-4 -10 -10 -10 -5 0 -10 5 -10 10 0 6 5 10 10 10 6 0 10 -4 10 -10z m360 -269
c0 -23 -15 -43 -41 -57 -38 -19 -39 -1 -1 37 28 29 42 35 42 20z m121 -151
c-14 -53 -13 -57 14 -64 26 -7 27 -8 9 -21 -26 -20 -34 -18 -34 6 0 17 -5 20
-25 17 -21 -4 -25 -1 -25 19 0 35 22 64 45 61 12 -2 18 -9 16 -18z m379 -16
c0 -8 -5 -12 -10 -9 -6 4 -8 11 -5 16 9 14 15 11 15 -7z m-105 -99 c-10 -53
-23 -48 -21 9 1 49 3 54 14 39 8 -11 11 -30 7 -48z m105 -5 c0 -25 -4 -30 -24
-30 -33 0 -41 15 -19 39 27 29 43 25 43 -9z m-492 13 c-10 -2 -26 -2 -35 0
-10 3 -2 5 17 5 19 0 27 -2 18 -5z m-1702 -28 c17 -26 13 -95 -6 -95 -5 0 -10
-26 -12 -57 -2 -37 -8 -58 -17 -61 -10 -3 -12 1 -8 18 3 12 0 32 -8 44 -11 18
-11 27 0 60 15 44 5 86 -21 86 -13 0 -14 3 -4 15 19 23 57 18 76 -10z m1974
-14 c0 -5 -7 -11 -15 -15 -15 -5 -20 5 -8 17 9 10 23 9 23 -2z m105 -41 c0 -7
-6 -15 -12 -17 -8 -3 -13 4 -13 17 0 13 5 20 13 18 6 -3 12 -11 12 -18z m-553
-10 c18 0 29 -7 33 -20 5 -16 16 -20 48 -21 l42 -1 -35 -13 c-46 -18 -60 -18
-60 0 0 19 -31 35 -69 35 -30 0 -46 11 -33 24 3 4 16 5 27 2 11 -3 32 -6 47
-6z m628 -41 c-10 -19 -10 -21 3 -16 12 5 13 0 4 -28 -5 -18 -6 -42 -2 -52 5
-10 7 -22 6 -27 -1 -4 3 -14 10 -22 15 -18 4 -105 -22 -179 -10 -30 -19 -62
-19 -71 0 -10 -7 -26 -16 -36 -13 -13 -14 -21 -6 -31 20 -23 -23 -243 -53
-273 -17 -18 -85 -47 -92 -40 -4 3 5 19 18 34 44 47 60 80 53 107 -4 15 -2 25
5 25 6 0 11 10 11 23 -1 42 13 92 29 103 12 9 13 15 3 26 -8 10 -9 24 -2 49
13 45 12 48 -9 22 -10 -12 -31 -25 -46 -29 -23 -6 -26 -10 -21 -35 4 -22 0
-32 -17 -44 -12 -8 -25 -15 -28 -15 -7 0 14 90 25 108 3 5 0 23 -6 40 -9 23
-9 35 -1 43 7 7 15 -1 27 -30 9 -23 18 -41 20 -41 20 0 32 14 29 34 -3 13 2
28 11 35 9 8 16 22 16 32 0 11 4 19 8 19 5 0 7 14 4 30 -2 17 0 30 6 30 14 0
33 76 35 140 2 49 0 55 -18 55 -12 0 -21 -8 -23 -19 -3 -11 -17 -33 -33 -49
-16 -16 -29 -35 -29 -43 0 -8 -4 -14 -10 -14 -26 0 -5 46 43 97 65 69 114 93
87 42z m-2242 -38 c-2 -18 -10 -27 -26 -29 -20 -3 -21 -1 -12 22 5 14 7 26 4
26 -3 0 -3 4 1 10 12 19 36 -2 33 -29z m22 -71 c0 -5 -2 -10 -4 -10 -3 0 -8 5
-11 10 -3 6 -1 10 4 10 6 0 11 -4 11 -10z m1581 -120 c28 0 16 -16 -21 -29
-28 -9 -32 -8 -41 16 -5 14 -7 34 -3 45 5 17 7 17 26 -7 10 -14 28 -25 39 -25z
m4744 -44 c131 -29 245 -77 245 -103 0 -13 9 -15 47 -10 26 3 54 1 62 -3 9 -5
24 -11 33 -14 9 -2 24 -20 33 -40 16 -33 16 -35 -4 -55 -26 -26 -41 -26 -94
-1 -25 12 -43 16 -45 10 -7 -20 -22 -10 -22 15 0 17 -8 29 -25 37 -13 6 -27
19 -30 30 -5 14 -16 18 -51 18 -25 0 -73 8 -107 19 -63 19 -274 59 -337 63
-23 2 -36 9 -38 20 -7 38 184 46 333 14z m-4190 4 c3 -5 1 -10 -4 -10 -6 0
-11 5 -11 10 0 6 2 10 4 10 3 0 8 -4 11 -10z m-505 -63 c0 -7 -7 -23 -16 -36
-24 -33 -43 -11 -20 23 18 28 36 34 36 13z m-23 -169 c-3 -8 -6 -5 -6 6 -1 11
2 17 5 13 3 -3 4 -12 1 -19z m395 -60 c-7 -7 -12 -8 -12 -2 0 14 12 26 19 19
2 -3 -1 -11 -7 -17z m4978 -9 c48 -25 54 -54 11 -64 -40 -9 -101 28 -101 61 0
31 34 32 90 3z m-8066 -105 c19 -18 19 -16 6 -48 -12 -33 -45 -36 -37 -4 4 12
1 28 -4 35 -11 13 -4 33 11 33 5 0 16 -7 24 -16z m140 -56 l7 -23 9 23 c9 22
11 22 40 7 16 -8 33 -15 37 -14 24 4 33 -4 33 -30 0 -35 -15 -48 -56 -48 -22
0 -41 -9 -63 -32 -17 -18 -37 -31 -44 -28 -14 5 -12 61 5 125 12 47 22 53 32
20z m2914 -21 c-13 -26 -22 -14 -14 20 6 20 10 23 16 13 5 -8 4 -22 -2 -33z
m-916 -2 c2 -19 0 -35 -4 -35 -4 0 -8 9 -8 20 0 11 -2 20 -5 20 -7 0 -44 -31
-64 -52 -18 -21 -21 -21 -41 -8 -12 7 -9 13 15 32 27 21 83 54 96 57 4 0 9
-15 11 -34z m530 -25 c-2 -16 -8 -30 -13 -30 -14 0 -11 48 4 53 6 3 12 6 13 6
0 1 -1 -12 -4 -29z m398 -20 c12 -8 11 -10 -7 -10 -13 0 -23 5 -23 10 0 13 11
13 30 0z m-430 -49 c0 -5 -7 -11 -15 -15 -9 -3 -15 0 -15 9 0 8 7 15 15 15 8
0 15 -4 15 -9z m-2815 -40 c-3 -12 -13 -21 -21 -21 -17 0 -18 14 -3 42 14 26
34 9 24 -21z m2775 -25 c0 -2 -10 -25 -21 -52 -22 -50 -37 -67 -51 -58 -13 8
-9 23 10 42 9 9 23 30 29 45 7 15 17 27 23 27 5 0 10 -2 10 -4z m-402 -75 c7
-22 23 -46 38 -56 19 -12 23 -20 15 -28 -8 -8 -17 -5 -34 11 -28 26 -37 28
-37 5 0 -18 -78 -92 -97 -93 -24 0 -13 17 41 64 52 46 53 49 48 92 -6 55 11
58 26 5z m-2448 10 c0 -5 -7 -14 -15 -21 -12 -10 -15 -10 -15 2 0 8 3 18 7 21
9 10 23 9 23 -2z m1534 -40 c24 -26 32 -93 16 -131 -12 -28 -15 -30 -69 -30
-38 0 -63 6 -79 18 -26 20 -36 73 -17 98 7 10 11 23 9 29 -13 32 112 47 140
16z m-1844 -65 c0 -3 -4 -8 -10 -11 -5 -3 -10 -1 -10 4 0 6 5 11 10 11 6 0 10
-2 10 -4z m2745 -76 c10 -16 -14 -50 -35 -50 -24 0 -25 8 -4 38 16 24 29 28
39 12z m545 -30 c0 -5 -4 -10 -10 -10 -5 0 -10 5 -10 10 0 6 5 10 10 10 6 0
10 -4 10 -10z m-542 -82 c3 -21 -4 -32 -35 -52 -73 -50 -90 -24 -31 48 35 42
61 44 66 4z m-3151 -45 c-19 -32 -67 -112 -107 -178 -40 -66 -102 -169 -137
-230 -141 -238 -179 -299 -191 -303 -18 -6 -15 26 6 56 9 15 22 36 29 47 6 11
71 119 145 240 73 120 139 230 145 243 7 13 24 38 38 54 15 17 37 52 50 78 21
42 43 64 54 54 1 -1 -13 -29 -32 -61z m3704 4 c-8 -8 -11 -4 -11 14 0 33 14
47 18 19 2 -12 -1 -27 -7 -33z m-3420 20 c-1 -12 -15 -9 -19 4 -3 6 1 10 8 8
6 -3 11 -8 11 -12z m-10 -78 c16 -16 18 -23 8 -35 -10 -12 -14 -10 -25 12 -24
46 -17 57 17 23z m3434 -6 c-4 -10 -21 -56 -37 -103 -31 -90 -52 -130 -68
-130 -20 0 -9 45 37 146 28 62 52 104 61 104 10 0 12 -6 7 -17z m-545 0 c0
-11 -58 -43 -76 -43 -18 0 -18 9 3 32 16 17 73 26 73 11z m-3332 -36 c2 -10
-3 -17 -12 -17 -10 0 -16 9 -16 21 0 24 23 21 28 -4z m3311 -73 c-13 -16 -59
-38 -65 -31 -9 8 39 47 58 47 18 0 19 -2 7 -16z m227 -9 c-21 -16 -32 -13 -21
4 3 6 14 11 23 11 15 -1 15 -2 -2 -15z m-176 -20 c0 -2 -10 -10 -22 -16 -21
-11 -22 -11 -9 4 13 16 31 23 31 12z m120 -4 c0 -5 -7 -14 -15 -21 -8 -7 -15
-10 -15 -7 0 3 -3 12 -6 21 -4 12 0 16 15 16 12 0 21 -4 21 -9z m-189 -42
c-13 -11 -26 -17 -29 -14 -7 6 29 34 43 34 6 0 -1 -9 -14 -20z m-1889 -156
c34 -33 37 -79 8 -111 -16 -17 -25 -20 -40 -12 -62 33 -81 123 -30 143 26 10
33 8 62 -20z m2192 -3 c-17 -17 -66 -17 -72 -1 -3 10 0 12 11 8 8 -3 23 1 34
8 21 16 44 2 27 -15z m151 5 c0 -10 -6 -20 -12 -22 -8 -3 -13 5 -13 22 0 17 5
25 13 23 6 -3 12 -13 12 -23z m-3635 -24 c0 -11 -9 -48 -20 -83 -22 -71 -25
-95 -10 -100 6 -2 -6 -30 -27 -62 -20 -33 -39 -54 -41 -48 -2 6 6 26 19 43 17
24 19 33 9 39 -9 6 -11 22 -7 55 4 28 3 44 -3 40 -8 -5 -119 -188 -149 -247
-8 -16 -18 -28 -23 -28 -24 0 -14 35 30 106 27 43 66 110 86 147 31 55 41 66
52 56 11 -9 17 -5 29 24 8 20 15 40 15 45 0 10 21 32 32 32 4 0 8 -9 8 -19z
m3420 -10 c0 -6 -4 -13 -10 -16 -5 -3 -10 1 -10 9 0 9 5 16 10 16 6 0 10 -4
10 -9z m-180 -50 c0 -17 -12 -41 -21 -41 -5 0 -9 11 -9 25 0 16 6 25 15 25 8
0 15 -4 15 -9z m-3189 -33 c-21 -53 -24 -65 -25 -103 -1 -44 -20 -65 -23 -25
0 14 -4 34 -7 45 -5 13 3 35 21 63 30 45 48 56 34 20z m560 -58 c21 -12 49
-60 49 -85 0 -19 -35 -55 -55 -55 -8 0 -30 13 -48 30 -30 26 -36 28 -47 15 -7
-8 -18 -15 -24 -15 -7 0 -29 -20 -49 -45 -21 -25 -42 -45 -47 -45 -14 0 0 32
30 65 14 17 39 47 54 68 15 21 44 46 64 56 45 23 49 24 73 11z m2679 -55 c0
-11 -11 -15 -37 -15 l-38 1 30 14 c40 18 45 18 45 0z m-3170 -25 c0 -5 -5 -10
-11 -10 -5 0 -7 5 -4 10 3 6 8 10 11 10 2 0 4 -4 4 -10z m3030 -4 c0 -3 -4 -8
-10 -11 -5 -3 -10 -1 -10 4 0 6 5 11 10 11 6 0 10 -2 10 -4z m-2950 -16 c0
-12 -62 -130 -96 -180 -12 -19 -30 -55 -39 -80 -29 -78 -37 -90 -62 -90 -32 0
-29 23 9 79 17 25 56 93 86 151 30 58 59 111 64 118 13 15 38 16 38 2z m3100
-9 c0 -20 -17 -37 -27 -28 -7 8 7 47 18 47 5 0 9 -9 9 -19z m-253 -7 c-3 -3
-12 -4 -19 -1 -8 3 -5 6 6 6 11 1 17 -2 13 -5z m5485 -20 c-5 -26 -10 -30 -23
-17 -14 14 -3 46 14 40 6 -2 10 -13 9 -23z m-7178 -40 c19 -19 26 -37 26 -64
0 -52 -26 -74 -76 -64 -22 4 -34 9 -27 11 8 3 8 13 -3 38 -18 44 -18 47 7 79
26 33 40 33 73 0z m-1784 -60 c-23 -39 -36 -52 -43 -45 -13 13 0 44 39 90 40
47 42 22 4 -45z m3416 30 c-4 -12 -10 -14 -17 -7 -5 5 -7 17 -3 27 4 12 10 14
17 7 5 -5 7 -17 3 -27z m5744 -23 c0 -10 -7 -24 -15 -31 -13 -11 -15 -8 -15
19 0 21 5 31 15 31 8 0 15 -8 15 -19z m-9245 -11 c3 -5 -1 -10 -9 -10 -9 0
-16 5 -16 10 0 6 4 10 9 10 6 0 13 -4 16 -10z m1133 -2 c7 -7 12 -18 12 -26 0
-7 7 -20 15 -28 8 -9 18 -27 22 -42 3 -15 13 -33 21 -41 9 -9 12 -26 9 -45 -6
-43 1 -56 29 -56 19 0 24 -5 24 -25 0 -14 5 -25 10 -25 6 0 10 -9 10 -20 0
-11 4 -20 9 -20 5 0 13 -9 16 -21 5 -16 12 -19 30 -15 24 6 38 -3 65 -44 25
-38 60 -70 78 -71 9 -1 28 -2 42 -2 20 -2 26 -8 28 -32 7 -66 92 -89 397 -110
50 -4 111 -11 138 -17 l47 -10 0 -96 c0 -104 3 -113 38 -131 16 -9 21 -18 17
-31 -5 -15 11 -37 63 -90 l69 -71 12 -92 c7 -51 16 -117 21 -147 6 -30 14 -82
20 -114 5 -33 10 -83 10 -112 0 -39 5 -56 18 -66 9 -7 46 -49 81 -93 34 -44
82 -102 104 -129 23 -27 51 -62 62 -77 19 -26 32 -35 88 -58 12 -6 74 -13 137
-16 321 -16 311 -15 356 -46 24 -16 49 -29 56 -29 8 0 18 -4 24 -9 16 -15 184
-31 320 -31 118 0 292 -15 303 -26 2 -2 -3 -12 -11 -21 -23 -26 -49 -114 -54
-182 -4 -58 -3 -61 28 -85 23 -17 41 -23 60 -19 36 7 73 -29 58 -57 -15 -29
-12 -47 12 -70 18 -17 24 -18 37 -6 9 7 48 16 86 20 74 6 165 21 203 32 16 5
22 2 22 -10 0 -18 -38 -36 -76 -36 -17 0 -24 -6 -24 -19 0 -15 -11 -19 -61
-25 -34 -3 -79 -6 -100 -6 l-39 0 0 -47 c0 -55 -8 -70 -41 -86 -25 -13 -62
-104 -73 -181 -15 -103 -27 -451 -27 -774 0 -307 2 -357 17 -387 12 -26 15
-51 11 -93 -5 -55 -2 -62 73 -219 46 -94 87 -166 99 -172 11 -6 33 -11 48 -11
52 0 53 -7 53 -245 0 -156 6 -275 21 -410 l21 -190 43 -75 c23 -41 42 -76 41
-77 -6 -8 -895 196 -1236 283 -867 222 -1186 304 -1207 314 -13 5 -23 18 -23
27 0 10 -7 32 -16 48 -18 35 -12 80 15 110 13 14 20 41 23 91 4 61 11 81 44
134 l39 63 3 201 c2 112 8 206 14 213 5 6 24 13 41 15 56 5 67 45 67 237 l0
164 -35 68 -34 67 8 99 c5 54 6 105 3 113 -11 31 -57 69 -84 70 l-28 0 0 153
c0 146 -1 154 -25 189 -30 45 -26 44 -300 58 -437 23 -414 21 -419 39 -15 55
-16 93 -2 119 10 19 13 46 10 88 -5 52 -3 62 19 87 47 53 52 80 28 150 -11 35
-21 74 -21 88 0 13 -10 35 -22 49 -27 29 -67 119 -78 174 -4 21 -13 41 -18 45
-6 4 -19 25 -28 46 -29 71 -67 150 -78 161 -6 6 -18 22 -26 34 -8 12 -22 30
-30 40 -8 10 -22 28 -30 40 -8 12 -25 34 -38 48 -13 15 -51 63 -85 107 -33 44
-64 82 -67 85 -3 3 -28 34 -55 70 -27 36 -62 81 -77 100 -16 19 -39 48 -51 63
-12 15 -27 33 -33 40 -24 28 -33 56 -35 125 -3 55 0 75 11 82 12 7 12 15 1 48
-11 31 -11 43 -2 54 17 19 49 72 96 158 l41 75 59 0 c38 0 60 4 63 13 2 6 9
12 15 12 16 0 61 40 76 68 8 16 9 27 1 42 -14 27 2 56 37 65 32 8 63 41 63 66
0 10 10 24 22 30 35 19 48 36 42 53 -7 18 14 76 27 76 5 0 6 13 3 28 -4 18 -1
34 9 43 8 8 22 30 32 48 13 26 14 35 5 41 -16 10 -5 60 13 60 7 0 18 -5 25
-12z m2792 -57 c0 -6 -4 -13 -10 -16 -5 -3 -10 1 -10 9 0 9 5 16 10 16 6 0 10
-4 10 -9z m-2586 -32 c30 -35 33 -65 10 -97 -30 -43 -86 -17 -106 49 -11 39
-10 42 13 60 34 26 53 24 83 -12z m492 6 c3 -8 4 -19 2 -24 -4 -13 -50 9 -56
27 -6 18 47 15 54 -3z m1557 -32 c-7 -2 -19 -2 -25 0 -7 3 -2 5 12 5 14 0 19
-2 13 -5z m-93 -23 c-34 -11 -60 -11 -35 0 11 5 29 8 40 8 16 0 15 -2 -5 -8z
m-2830 -9 c0 -12 -20 -25 -27 -18 -7 7 6 27 18 27 5 0 9 -4 9 -9z m130 -55 c0
-8 -4 -18 -10 -21 -5 -3 -10 -21 -10 -40 0 -39 -12 -51 -30 -30 -13 16 -6 48
19 82 19 26 31 29 31 9z m-160 -5 c0 -12 -20 -25 -27 -18 -7 7 6 27 18 27 5 0
9 -4 9 -9z m2958 -38 c-5 -25 -28 -28 -28 -4 0 12 6 21 16 21 9 0 14 -7 12
-17z m-2408 -43 c0 -5 -4 -10 -10 -10 -5 0 -10 5 -10 10 0 6 5 10 10 10 6 0
10 -4 10 -10z m2091 -43 c-18 -18 -25 2 -10 30 14 26 14 26 17 4 2 -13 -1 -28
-7 -34z m-2603 21 c16 -16 15 -53 -2 -68 -8 -6 -16 -21 -18 -33 -4 -28 -34
-34 -47 -9 -7 13 -7 31 0 58 17 61 40 79 67 52z m452 -68 c0 -5 -4 -10 -10
-10 -5 0 -10 5 -10 10 0 6 5 10 10 10 6 0 10 -4 10 -10z m-532 -102 c-9 -13
-23 -24 -32 -26 -23 -5 -10 23 17 36 31 15 31 15 15 -10z m437 -58 c3 -5 -1
-10 -9 -10 -9 0 -16 5 -16 10 0 6 4 10 9 10 6 0 13 -4 16 -10z m-313 -37 c-6
-10 -29 -36 -53 -58 -48 -46 -43 -31 14 38 39 47 59 57 39 20z m-230 -25 c-7
-7 -12 -8 -12 -2 0 14 12 26 19 19 2 -3 -1 -11 -7 -17z m3908 -205 c0 -7 -7
-13 -15 -13 -15 0 -21 31 -8 43 8 8 23 -12 23 -30z m-50 2 c0 -8 -7 -15 -15
-15 -16 0 -20 12 -8 23 11 12 23 8 23 -8z m-93 -12 c3 -7 -8 -19 -22 -29 -20
-13 -29 -14 -38 -5 -9 9 -6 16 13 31 26 21 41 21 47 3z m-4030 -37 c-4 -9 -11
-16 -17 -16 -11 0 -14 33 -3 44 11 10 26 -11 20 -28z m168 -33 c-8 -33 -19
-47 -33 -42 -7 3 -5 16 3 37 17 40 40 44 30 5z m-554 -257 c-7 -42 -31 -63
-31 -26 0 19 29 75 35 68 2 -2 0 -21 -4 -42z m316 14 c84 -22 142 -55 154 -87
2 -6 28 -29 57 -52 l52 -41 0 -65 c0 -85 -18 -165 -38 -173 -17 -6 -32 -16
-55 -38 -12 -11 -47 -7 -47 5 0 4 -16 24 -35 45 -19 21 -35 43 -35 49 0 5 -8
17 -18 26 -10 9 -46 52 -81 96 -42 53 -73 83 -92 88 -33 9 -37 33 -18 102 20
73 35 78 156 45z m2621 -16 c69 -59 69 -64 12 -142 -27 -38 -50 -74 -50 -80 0
-17 -40 -36 -52 -24 -5 5 -14 40 -19 78 -4 38 -13 96 -18 128 -6 32 -8 63 -5
67 3 5 24 9 48 9 34 0 50 -7 84 -36z m-2180 -36 c16 -24 32 -61 35 -83 3 -22
8 -51 11 -65 15 -58 -29 -61 -64 -5 -12 19 -34 48 -50 66 -34 35 -38 73 -14
107 23 34 50 27 82 -20z m2340 -188 c0 -37 -3 -72 -7 -77 -5 -8 -106 -33 -133
-33 -13 0 -9 37 6 49 7 6 30 39 51 74 21 34 43 65 49 69 23 15 35 -14 34 -82z
m-2134 -45 c11 -8 29 -15 40 -15 13 0 32 -17 51 -42 16 -23 56 -75 88 -116 47
-58 61 -82 65 -117 3 -31 14 -53 37 -78 24 -25 32 -42 28 -56 -3 -12 -9 -21
-14 -21 -4 0 -17 -9 -28 -21 -28 -30 -59 -21 -85 24 -11 21 -34 53 -50 70 -50
55 -112 140 -135 184 -11 23 -32 53 -46 67 -20 20 -25 35 -25 74 0 27 3 52 7
55 11 12 47 7 67 -8z m-154 -63 c0 -13 -12 -22 -22 -16 -10 6 -1 24 13 24 5 0
9 -4 9 -8z m2292 -147 c1 -30 2 -65 2 -77 1 -32 -32 -36 -52 -6 -9 12 -31 39
-49 59 -54 60 -44 74 55 78 l42 1 2 -55z m6805 28 c3 -10 14 -37 25 -61 10
-23 21 -56 25 -72 4 -25 2 -30 -13 -30 -54 0 -143 130 -114 165 18 21 69 19
77 -2z m-9287 -26 c0 -62 -81 -95 -88 -35 -3 21 3 30 25 42 41 22 63 20 63 -7z
m90 -1 c0 -35 -55 -52 -66 -21 -9 21 14 45 42 45 19 0 24 -5 24 -24z m9081
-57 c26 -54 47 -82 71 -97 65 -40 67 -43 193 -362 46 -115 54 -128 99 -143 38
-13 43 -19 67 -80 25 -65 25 -69 12 -149 -29 -184 -33 -195 -86 -244 -26 -24
-51 -44 -56 -44 -4 0 -35 -29 -68 -65 -67 -73 -76 -98 -66 -200 5 -56 3 -65
-17 -85 -21 -21 -28 -22 -95 -16 -69 6 -76 5 -126 -24 -30 -17 -86 -47 -125
-67 -59 -30 -78 -46 -108 -91 -20 -30 -36 -65 -36 -77 0 -35 -124 -137 -203
-167 -62 -24 -76 -41 -77 -93 0 -52 31 -103 67 -110 15 -3 45 -11 65 -17 48
-14 145 -4 169 18 25 23 45 12 53 -30 8 -40 -7 -76 -31 -76 -8 0 -30 -16 -48
-35 -30 -31 -36 -33 -65 -25 -18 5 -41 17 -51 26 -20 18 -86 29 -122 21 -13
-4 -34 -16 -47 -27 -13 -11 -35 -20 -50 -20 -26 0 -29 5 -44 67 -15 57 -15 78
-5 158 11 87 11 95 -9 137 -12 24 -22 56 -22 71 0 14 -4 29 -10 32 -5 3 -10
14 -10 23 0 15 186 309 258 407 38 52 71 117 72 141 0 10 3 38 6 60 9 66 -28
106 -101 108 -21 1 -21 3 -9 88 5 27 -1 51 -24 100 -17 34 -37 81 -45 103 -19
51 -54 136 -82 200 -12 28 -35 80 -49 117 -15 36 -33 69 -41 71 -7 3 -30 1
-51 -4 -68 -15 -96 5 -123 91 -10 30 -9 38 9 62 24 32 26 71 5 88 -21 17 -75
114 -75 134 0 19 0 19 148 5 116 -11 121 -10 417 36 165 26 320 50 345 55 77
14 81 12 121 -71z m-4761 -435 c0 -8 -4 -12 -10 -9 -5 3 -10 10 -10 16 0 5 5
9 10 9 6 0 10 -7 10 -16z m148 -346 c-3 -7 -29 -16 -59 -19 -30 -4 -74 -10
-98 -14 -35 -7 -43 -5 -39 6 3 9 33 18 84 25 111 16 116 16 112 2z m-58 -148
c0 -5 -2 -10 -4 -10 -3 0 -8 5 -11 10 -3 6 -1 10 4 10 6 0 11 -4 11 -10z m-80
-80 c11 -7 5 -10 -23 -10 -23 0 -36 4 -32 10 8 13 35 13 55 0z m1234 -51 c14
-70 4 -209 -15 -209 -5 0 -9 54 -9 120 0 115 11 155 24 89z m-5004 -299 c0
-14 -11 -22 -37 -29 -56 -16 -123 -14 -123 3 0 22 44 35 143 44 11 1 17 -5 17
-18z m-330 -225 c0 -8 -4 -15 -10 -15 -5 0 -10 7 -10 15 0 8 5 15 10 15 6 0
10 -7 10 -15z m3440 -135 c0 -5 -7 -10 -15 -10 -8 0 -15 5 -15 10 0 6 7 10 15
10 8 0 15 -4 15 -10z m5460 -221 l32 -12 -4 -143 c-2 -79 -6 -146 -9 -148 -2
-2 -16 -7 -32 -11 -24 -6 -27 -4 -27 18 0 19 -7 28 -31 36 l-31 11 4 107 c5
149 19 169 98 142z m-2947 -214 c-1 -11 -5 -39 -9 -62 -10 -61 10 -85 89 -112
70 -23 131 -21 174 5 32 20 50 17 57 -8 11 -43 6 -67 -16 -79 -13 -6 -33 -22
-44 -36 -20 -24 -24 -24 -60 -13 -22 7 -52 19 -67 27 -21 11 -44 13 -81 9 -42
-6 -59 -14 -85 -42 -18 -18 -36 -34 -41 -34 -16 0 -18 -52 -1 -67 45 -39 80
-63 93 -63 26 0 58 -39 58 -72 0 -61 49 -84 110 -53 22 11 35 12 57 4 34 -13
69 -4 106 27 23 19 32 22 49 13 21 -12 21 -13 -5 -106 -17 -58 -12 -97 9 -89
22 9 16 -5 -15 -33 -52 -48 -65 -102 -37 -155 20 -39 10 -62 -38 -92 -72 -46
-105 -108 -128 -241 -6 -40 -16 -73 -20 -73 -4 0 -8 -11 -8 -23 0 -13 -9 -32
-20 -42 -12 -11 -20 -31 -20 -49 0 -17 -7 -49 -15 -71 -8 -22 -14 -63 -15 -90
0 -28 -5 -66 -10 -85 -7 -23 -7 -36 0 -38 5 -2 10 -9 10 -16 0 -8 -34 -117
-75 -245 -61 -186 -79 -231 -94 -231 -15 0 -812 163 -986 202 -51 11 -61 17
-63 37 l-4 24 208 -4 207 -4 38 61 c20 33 53 98 73 143 l36 82 -25 33 c-29 38
-34 106 -10 126 11 9 15 32 15 81 0 58 3 71 24 92 23 23 23 26 19 168 -4 126
-7 146 -24 161 -10 9 -19 22 -19 30 0 8 -7 23 -15 34 -19 25 -20 108 0 124 16
13 12 81 -7 132 -9 25 -6 31 26 61 35 33 36 36 36 108 0 41 6 84 13 95 64 111
62 101 67 254 l5 145 25 3 c14 2 34 12 45 22 29 25 229 39 238 16 9 -22 62
-20 84 3 35 36 89 40 86 6z m-5459 -27 c3 -15 2 -29 -3 -32 -11 -7 -28 15 -26
34 1 8 3 22 3 30 3 20 18 1 26 -32z m-824 22 c0 -5 -5 -10 -11 -10 -5 0 -7 5
-4 10 3 6 8 10 11 10 2 0 4 -4 4 -10z m320 -225 c0 -8 -4 -15 -10 -15 -5 0
-10 7 -10 15 0 8 5 15 10 15 6 0 10 -7 10 -15z m8728 -205 c62 -58 65 -77 28
-215 -13 -49 -26 -103 -30 -118 -5 -20 -30 -45 -89 -87 -45 -33 -92 -67 -105
-76 -40 -30 -61 -79 -88 -205 -14 -68 -34 -135 -44 -149 -9 -14 -22 -46 -28
-70 -5 -25 -18 -72 -27 -105 -10 -36 -14 -76 -10 -100 3 -26 -2 -66 -16 -115
-11 -41 -27 -109 -34 -150 -12 -73 -37 -183 -56 -246 -5 -18 -10 -49 -11 -70
0 -22 -14 -64 -29 -95 -31 -62 -45 -114 -54 -200 l-6 -56 -84 -44 c-84 -44
-85 -44 -105 -103 -12 -37 -20 -86 -20 -129 0 -49 -3 -66 -12 -61 -6 4 -79 22
-161 40 -82 18 -151 35 -154 38 -13 13 25 122 83 241 46 93 69 154 81 214 16
80 16 87 -2 135 -9 28 -31 70 -47 94 -17 24 -28 45 -26 48 3 2 109 7 236 11
127 3 235 9 240 12 8 5 24 83 82 401 11 58 26 141 34 185 l15 80 -25 21 c-24
20 -26 25 -19 75 4 30 15 90 24 134 17 75 19 80 46 85 34 6 33 4 65 190 12 69
28 161 37 205 8 44 13 101 10 127 -6 45 -5 48 28 68 32 20 36 20 59 5 21 -14
31 -15 60 -5 19 6 40 18 46 26 22 25 54 14 108 -36z m-8 -475 c0 -14 -7 -37
-16 -51 -14 -21 -22 -24 -48 -19 -70 14 -70 14 -14 55 63 46 78 49 78 15z
m-2353 -31 c-3 -3 -12 -4 -19 -1 -8 3 -5 6 6 6 11 1 17 -2 13 -5z m2299 -90
c-3 -9 -6 -20 -6 -25 0 -10 -50 -1 -64 11 -16 15 5 30 41 30 28 0 34 -3 29
-16z m-2316 -54 c-24 -15 -37 -11 -16 5 11 8 22 12 25 9 3 -3 -1 -9 -9 -14z
m2193 -32 c12 -6 39 -22 59 -34 35 -23 36 -24 26 -59 l-11 -35 -69 0 c-37 0
-68 2 -68 5 0 15 33 135 37 135 2 0 14 -5 26 -12z m-2268 -145 c24 -11 35 -23
35 -38 0 -37 -22 -54 -75 -57 l-50 -3 2 32 c4 46 20 83 37 83 9 0 31 -8 51
-17z m145 -74 c9 -15 9 -34 0 -72 -79 -355 -90 -399 -103 -414 -12 -16 -29
-16 -51 0 -19 14 -15 34 49 272 15 55 29 111 32 125 13 77 26 110 44 110 10 0
23 -9 29 -21z m2120 -262 c0 -22 -62 -262 -70 -272 -24 -29 -160 -136 -160
-126 0 6 20 97 45 201 25 104 45 192 45 195 0 3 32 5 70 5 39 0 70 -1 70 -3z
m-2337 -107 c-1 -14 -5 -41 -10 -60 -9 -37 -8 -36 -84 -32 l-32 2 7 46 c8 65
20 76 75 72 42 -3 46 -5 44 -28z m2395 -167 c16 -32 -13 -89 -57 -112 l-24
-13 8 48 c6 45 36 94 56 94 5 0 12 -8 17 -17z m-2310 -80 c-2 -20 -9 -29 -25
-31 -26 -4 -27 -2 -11 33 16 35 40 33 36 -2z m2143 -123 c-17 -62 -33 -115
-36 -118 -3 -3 -30 2 -60 13 -37 12 -55 23 -54 34 4 54 17 72 94 130 44 33 81
58 83 56 2 -1 -11 -53 -27 -115z m128 -22 c-15 -83 -50 -114 -69 -62 -7 17 -6
40 1 68 9 36 16 45 42 53 18 5 33 9 35 7 2 -1 -2 -31 -9 -66z m-2294 30 c8
-22 -21 -103 -39 -106 -13 -3 -16 5 -16 35 0 55 41 108 55 71z m-5777 -205 c3
-21 -1 -23 -37 -23 -33 0 -41 4 -41 18 0 27 10 33 45 30 22 -2 31 -9 33 -25z
m-123 -3 c0 -10 -12 -16 -32 -18 -24 -2 -33 1 -33 12 0 8 6 17 13 20 22 9 52
1 52 -14z m-2785 -356 c0 -9 -5 -14 -12 -12 -18 6 -21 28 -4 28 9 0 16 -7 16
-16z m8537 -66 c-3 -8 -6 -5 -6 6 -1 11 2 17 5 13 3 -3 4 -12 1 -19z m-87
-380 c-4 -123 -102 -493 -132 -493 -9 0 -16 23 -22 71 -8 64 -5 84 23 194 22
87 39 133 60 159 15 20 33 46 40 59 13 24 31 30 31 10z m-9170 -175 c0 -15
-61 -73 -70 -68 -6 3 5 21 23 40 31 34 47 43 47 28z m9589 -267 c17 -20 3 -91
-25 -121 -43 -47 -61 -27 -44 48 20 85 41 107 69 73z m-18279 -772 c0 -9 -7
-14 -17 -12 -25 5 -28 28 -4 28 12 0 21 -6 21 -16z m-340 -329 c0 -4 -7 -19
-15 -34 -14 -29 -38 -45 -49 -34 -11 12 -6 24 20 48 25 24 44 32 44 20z m-210
-378 c-8 -7 -20 -21 -26 -32 -17 -30 -44 -32 -37 -3 7 29 30 48 57 48 18 -1
19 -2 6 -13z m12927 -75 c38 -32 39 -58 1 -54 -14 2 -28 -1 -31 -5 -3 -5 -22
-7 -42 -5 -27 3 -35 8 -32 21 2 9 10 14 18 12 8 -2 22 -6 32 -9 17 -4 18 -3 5
17 -9 15 -19 20 -35 16 -25 -6 -38 8 -29 32 9 22 72 8 113 -25z m418 7 c16
-24 -5 -57 -39 -63 -19 -4 -39 -13 -46 -21 -14 -16 -36 -20 -44 -7 -9 15 22
87 39 91 13 2 16 -2 12 -13 -3 -8 -2 -18 3 -21 14 -9 38 5 43 26 6 21 22 25
32 8z m-25 -118 c0 -27 -26 -44 -55 -37 -29 7 -35 42 -7 49 41 11 62 7 62 -12z
m-12670 -21 c0 -5 -4 -10 -10 -10 -5 0 -10 5 -10 10 0 6 5 10 10 10 6 0 10 -4
10 -10z m-55 -10 c8 -13 -31 -100 -45 -100 -6 0 -8 16 -4 43 9 58 32 84 49 57z
m12930 -1 c8 -13 -23 -49 -42 -49 -19 0 -27 28 -13 45 14 17 46 20 55 4z
m-1455 -63 c0 -19 -22 -35 -60 -42 -25 -5 -32 -4 -28 6 2 8 11 17 19 20 8 4
23 12 34 18 27 15 35 14 35 -2z m-2960 -135 c0 -14 -18 -23 -30 -16 -6 4 -8
11 -5 16 8 12 35 12 35 0z m10970 -286 c0 -14 -32 -65 -40 -65 -16 0 -12 32 7
52 15 17 33 24 33 13z m-961 -139 c15 -18 3 -46 -20 -46 -14 0 -19 7 -19 30 0
32 19 40 39 16z m131 -15 c0 -14 -49 -31 -56 -20 -7 12 -7 12 21 27 20 10 35
8 35 -7z m-9545 -371 c-3 -5 -17 -10 -31 -10 -13 0 -24 5 -24 10 0 6 14 10 31
10 17 0 28 -4 24 -10z m65 -5 c0 -16 -27 -32 -37 -22 -3 4 -3 13 0 22 8 20 37
20 37 0z m-300 -23 l22 -18 -23 -34 c-28 -42 -103 -120 -115 -120 -4 0 -15 -6
-23 -14 -9 -8 -38 -19 -66 -24 -41 -9 -54 -8 -73 4 -32 21 -25 33 37 55 57 20
91 44 91 64 0 22 41 65 61 65 10 0 27 9 36 20 21 24 25 25 53 2z m-200 -32
c-8 -15 -19 -20 -37 -18 -15 2 -28 -3 -30 -9 -3 -7 2 -13 11 -13 9 0 16 -7 16
-15 0 -9 -9 -15 -24 -15 -14 0 -28 -4 -31 -10 -14 -22 -23 -8 -21 33 3 48 20
62 86 65 39 3 41 2 30 -18z m294 -29 c-4 -17 -15 -36 -25 -42 -30 -15 -24 -47
8 -51 16 -2 29 -10 31 -19 4 -22 -95 -72 -134 -67 -55 6 -38 62 27 88 21 9 32
23 40 51 11 36 46 85 55 76 2 -2 1 -18 -2 -36z m226 -4 c0 -8 -11 -24 -25 -37
-14 -13 -31 -42 -37 -64 -12 -41 -43 -95 -63 -108 -5 -4 -18 1 -29 11 -18 18
-18 20 7 82 13 35 27 72 30 82 12 33 117 64 117 34z m-693 -35 c-8 -9 -18 -34
-21 -55 -7 -40 -24 -54 -53 -42 -17 6 -17 7 1 21 13 9 15 14 6 14 -7 0 -27
-11 -44 -24 -66 -50 -126 -70 -126 -43 0 15 58 64 110 93 19 10 44 26 55 35
26 22 79 39 84 27 1 -5 -4 -17 -12 -26z m1104 -25 c-14 -36 -33 -35 -25 1 4
15 12 33 18 41 16 20 20 -7 7 -42z m-2041 33 c0 -5 -2 -10 -4 -10 -3 0 -8 5
-11 10 -3 6 -1 10 4 10 6 0 11 -4 11 -10z m1798 -7 c35 -8 35 -20 0 -32 -46
-16 -78 -50 -78 -83 0 -22 4 -28 23 -28 48 0 175 88 177 124 0 4 -16 5 -35 2
-42 -8 -48 9 -9 24 32 12 111 13 118 1 3 -5 0 -14 -8 -20 -7 -6 -13 -31 -14
-56 0 -25 -6 -52 -12 -60 -16 -20 -46 -19 -54 1 -8 20 -51 14 -106 -15 -19
-10 -62 -26 -95 -36 -33 -11 -64 -24 -70 -31 -11 -12 -115 -35 -128 -27 -14 8
4 23 28 23 24 0 42 30 30 50 -3 5 2 17 12 27 10 10 26 31 36 46 9 15 26 27 36
27 11 0 21 9 25 24 6 26 63 59 86 50 8 -4 25 -9 38 -11z m-148 -21 c0 -13 -12
-22 -22 -16 -10 6 -1 24 13 24 5 0 9 -4 9 -8z m-1140 -54 c23 14 40 16 40 3 0
-9 -57 -27 -74 -23 -4 2 -19 -5 -33 -13 -29 -19 -36 -17 -20 6 20 26 51 39 59
26 6 -9 12 -9 28 1z m482 -20 c-9 -9 -15 -9 -24 0 -10 10 -10 15 2 22 20 12
38 -6 22 -22z m1148 17 c0 -3 -7 -16 -15 -29 -9 -13 -15 -28 -14 -32 2 -5 -3
-28 -10 -52 -10 -36 -16 -43 -34 -40 -32 4 -34 44 -5 77 13 14 29 38 36 54 6
15 18 27 27 27 8 0 15 -2 15 -5z m-237 -96 c-7 -7 -19 -8 -30 -4 -16 7 -15 9
7 15 30 8 38 4 23 -11z m-3889 2 c8 -13 -21 -34 -39 -27 -20 7 -8 36 15 36 11
0 21 -4 24 -9z m2856 -1 c0 -5 -7 -10 -15 -10 -8 0 -15 5 -15 10 0 6 7 10 15
10 8 0 15 -4 15 -10z m548 -47 c-4 -20 -54 -31 -70 -15 -17 17 1 32 38 32 28
0 35 -4 32 -17z m282 -33 c0 -5 -14 -17 -30 -25 -32 -17 -74 -12 -67 8 7 21
97 37 97 17z m-1358 -21 c15 -8 26 -8 44 1 26 14 54 7 54 -13 0 -7 -11 -24
-25 -37 -20 -18 -31 -22 -62 -17 -23 4 -54 1 -78 -8 -43 -15 -106 -20 -104 -7
2 16 81 75 112 82 17 4 33 8 35 9 2 1 13 -4 24 -10z m2509 -145 c-5 -38 -13
-83 -18 -101 -8 -34 -46 -83 -63 -83 -16 0 -12 46 5 60 8 7 15 22 15 34 0 11
11 43 25 70 14 27 25 57 25 66 0 17 10 33 17 26 2 -2 -1 -34 -6 -72z m-3631 6
c-20 -13 -40 -13 -40 0 0 6 12 10 28 10 21 0 24 -2 12 -10z m-60 -24 c0 -16
-26 -46 -41 -46 -13 0 -11 13 7 38 17 25 34 29 34 8z m-236 -77 c-3 -5 -10 -7
-15 -3 -5 3 -7 10 -3 15 3 5 10 7 15 3 5 -3 7 -10 3 -15z m-251 -46 c-7 -2
-21 -2 -30 0 -10 3 -4 5 12 5 17 0 24 -2 18 -5z m-1073 -45 c0 -7 3 -23 6 -34
4 -14 0 -23 -10 -27 -13 -5 -16 1 -16 33 0 22 5 40 10 40 6 0 10 -6 10 -12z
m78 -10 c-7 -19 -38 -22 -38 -4 0 10 9 16 21 16 12 0 19 -5 17 -12z m-1052
-58 c17 0 18 -12 2 -28 -17 -17 -41 -15 -34 3 6 16 -9 21 -18 6 -11 -17 -77
-20 -102 -4 -36 23 -18 36 42 30 36 -4 58 -1 71 8 15 12 18 11 21 -1 2 -8 10
-14 18 -14z m4799 10 c3 -5 1 -10 -4 -10 -6 0 -11 5 -11 10 0 6 2 10 4 10 3 0
8 -4 11 -10z m-3725 -40 c0 -12 -28 -25 -36 -17 -9 9 6 27 22 27 8 0 14 -5 14
-10z m2658 -35 c-3 -3 -13 -2 -22 1 -14 5 -15 9 -4 15 13 8 36 -6 26 -16z
m3968 10 c16 -12 17 -14 2 -15 -23 0 -48 11 -48 21 0 14 24 11 46 -6z m-6778
-13 c3 -11 -78 -56 -86 -47 -7 7 23 44 43 54 24 11 37 9 43 -7z m132 -18 c0
-8 -9 -14 -20 -14 -22 0 -26 10 -8 28 13 13 28 7 28 -14z m5825 -64 c3 -6 -1
-7 -9 -4 -18 7 -21 14 -7 14 6 0 13 -4 16 -10z m-165 -30 c-27 -21 -61 -23
-67 -3 -4 10 15 15 77 21 9 1 5 -6 -10 -18z m-5920 -4 c0 -16 -18 -31 -27 -22
-8 8 5 36 17 36 5 0 10 -6 10 -14z m2277 -60 c-4 -12 -69 -37 -77 -30 -2 3 8
16 24 29 27 23 61 24 53 1z m93 -16 c-12 -23 -30 -27 -30 -7 0 17 10 27 27 27
11 0 11 -5 3 -20z m965 0 c-3 -5 -11 -10 -16 -10 -6 0 -7 5 -4 10 3 6 11 10
16 10 6 0 7 -4 4 -10z m-1439 -24 c29 -22 7 -35 -69 -40 -38 -3 -74 -9 -80
-14 -7 -5 -38 -13 -69 -16 -54 -7 -58 -6 -58 13 0 27 29 41 84 41 25 0 47 4
51 9 3 6 24 9 46 9 22 0 43 2 46 6 10 10 28 7 49 -8z m79 -7 c4 -6 5 -13 2
-16 -8 -7 -47 7 -47 18 0 13 37 11 45 -2z m583 -27 c5 -36 -13 -50 -54 -43
-77 12 -67 75 10 69 34 -2 42 -7 44 -26z m-208 -47 c27 -44 16 -64 -32 -57
-35 4 -67 35 -68 64 0 15 10 19 67 27 6 0 21 -15 33 -34z m21979 11 c13 -13
21 -32 19 -41 -3 -15 -6 -15 -30 5 -16 12 -28 30 -28 41 0 25 12 24 39 -5z
m-17499 10 c0 -3 -4 -8 -10 -11 -5 -3 -10 -1 -10 4 0 6 5 11 10 11 6 0 10 -2
10 -4z m-4977 -81 c1 -5 -6 -11 -15 -13 -11 -2 -18 3 -18 13 0 17 30 18 33 0z
m597 0 c18 -21 5 -45 -25 -45 -25 0 -31 13 -19 44 8 20 28 21 44 1z m1936 -26
c8 -14 -21 -43 -35 -35 -6 4 -16 16 -21 27 -10 17 -7 19 19 19 16 0 33 -5 37
-11z m-2431 -29 c0 -16 -6 -26 -17 -28 -14 -3 -18 3 -18 28 0 25 4 31 18 28
11 -2 17 -12 17 -28z m201 14 c25 -10 46 -26 53 -41 7 -14 10 -26 9 -27 -33
-16 -74 -24 -88 -16 -9 5 -26 7 -37 4 -24 -7 -41 13 -20 22 8 3 18 21 21 40 8
39 7 39 62 18z m-345 -29 c25 10 53 -30 45 -65 -5 -27 -2 -33 24 -48 16 -9 30
-21 30 -25 0 -18 -33 -17 -65 2 -20 12 -48 21 -63 21 -18 0 -38 13 -64 41 -21
23 -38 45 -38 49 0 12 28 20 66 20 20 0 34 5 34 13 0 9 2 9 8 -1 5 -7 15 -10
23 -7z m-206 -74 c0 -8 -8 -19 -17 -25 -14 -8 -21 -7 -34 6 -9 9 -13 21 -9 28
10 15 60 8 60 -9z m4635 3 c0 -8 -5 -12 -10 -9 -6 4 -8 11 -5 16 9 14 15 11
15 -7z m49 -133 c7 -15 11 -48 9 -72 l-3 -44 -18 39 c-18 40 -23 106 -8 106 5
0 14 -13 20 -29z m-5579 9 c0 -5 -5 -10 -11 -10 -5 0 -7 5 -4 10 3 6 8 10 11
10 2 0 4 -4 4 -10z m815 1 c8 -13 -23 -41 -45 -41 -10 0 -22 -4 -25 -10 -10
-16 -23 -12 -35 10 -10 18 -7 22 22 35 38 16 74 19 83 6z m1218 -15 c14 -11
15 -15 4 -19 -15 -5 -37 10 -37 25 0 12 12 9 33 -6z m22789 -7 c9 -5 27 -9 40
-9 15 0 39 -16 63 -40 44 -45 42 -67 -8 -84 -26 -9 -55 2 -153 59 -26 16 -74
74 -74 90 0 8 112 -6 132 -16z m-2617 -134 c30 -30 45 -53 45 -71 0 -24 -2
-25 -32 -19 -18 4 -40 12 -48 19 -114 86 -128 116 -55 116 41 0 50 -5 90 -45z
m-22139 10 c3 -14 4 -36 0 -48 -5 -23 -21 -26 -85 -18 -3 1 5 10 16 20 14 13
19 28 16 45 -5 23 -2 26 21 26 19 0 27 -6 32 -25z m458 5 c17 -16 -2 -37 -40
-43 -58 -10 -89 28 -41 51 23 11 65 7 81 -8z m2764 -7 c4 -25 -16 -31 -36 -11
-20 20 -14 40 11 36 14 -2 23 -11 25 -25z m2330 -26 c2 -18 -2 -29 -13 -33
-23 -9 -28 0 -20 36 8 37 29 35 33 -3z m-5380 -3 c29 -20 28 -34 -3 -34 -14 0
-25 5 -25 10 0 6 -7 10 -15 10 -16 0 -20 12 -8 23 10 11 27 8 51 -9z m767 -37
c8 -16 15 -34 15 -39 0 -12 -98 -10 -105 2 -3 6 -19 10 -35 10 -16 0 -32 5
-36 12 -10 16 24 38 60 38 17 0 37 4 45 9 21 13 38 3 56 -32z m173 6 c2 -9 -8
-13 -32 -13 -34 0 -52 11 -39 24 11 11 66 2 71 -11z m-1068 -32 c0 -16 -41
-61 -56 -61 -22 0 -17 37 8 54 25 18 48 21 48 7z m747 -47 c-3 -3 -12 -4 -19
-1 -8 3 -5 6 6 6 11 1 17 -2 13 -5z m-1333 -54 c30 -11 35 -44 9 -54 -56 -22
-212 -14 -220 11 -4 12 39 39 87 54 28 9 85 4 124 -11z m24993 -166 c34 -26
45 -67 21 -77 -20 -7 -76 4 -87 17 -15 19 -17 52 -2 69 18 23 28 21 68 -9z
m-27004 -80 c21 -8 23 -34 2 -34 -13 0 -39 12 -65 28 -8 6 25 22 35 17 6 -3
18 -8 28 -11z m317 6 c0 -5 -4 -10 -10 -10 -5 0 -10 5 -10 10 0 6 5 10 10 10
6 0 10 -4 10 -10z m-515 -41 c9 -14 2 -19 -37 -28 -18 -5 -44 -12 -58 -16 -23
-7 -24 -6 -11 9 15 17 66 44 88 45 6 1 15 -4 18 -10z"/>
<path d="M16800 15060 c0 -5 5 -10 11 -10 5 0 7 5 4 10 -3 6 -8 10 -11 10 -2
0 -4 -4 -4 -10z"/>
<path d="M16800 14959 c0 -5 5 -7 10 -4 6 3 10 8 10 11 0 2 -4 4 -10 4 -5 0
-10 -5 -10 -11z"/>
<path d="M14200 13649 c0 -5 5 -7 10 -4 6 3 10 8 10 11 0 2 -4 4 -10 4 -5 0
-10 -5 -10 -11z"/>
<path d="M14470 11400 c0 -5 5 -10 10 -10 6 0 10 5 10 10 0 6 -4 10 -10 10 -5
0 -10 -4 -10 -10z"/>
<path d="M7960 529 c0 -5 5 -7 10 -4 6 3 10 8 10 11 0 2 -4 4 -10 4 -5 0 -10
-5 -10 -11z"/>
<path d="M14886 14661 c-11 -4 -15 -10 -10 -13 5 -3 23 0 39 7 23 10 25 13 10
13 -11 1 -29 -3 -39 -7z"/>
<path d="M14805 14440 c-10 -11 -13 -20 -8 -20 13 0 38 29 31 35 -3 3 -13 -4
-23 -15z"/>
<path d="M14764 14385 c-17 -26 -38 -104 -30 -112 3 -3 8 8 11 23 11 50 14 54
30 48 17 -7 21 11 5 21 -7 4 -7 13 0 26 15 27 3 24 -16 -6z"/>
<path d="M14330 14155 c-16 -9 -19 -14 -9 -15 8 0 24 7 35 15 24 18 7 19 -26
0z"/>
<path d="M23134 13165 c8 -8 19 -15 25 -15 6 0 8 7 5 15 -4 8 -15 15 -26 15
-17 0 -18 -2 -4 -15z"/>
<path d="M12301 11424 c0 -11 3 -14 6 -6 3 7 2 16 -1 19 -3 4 -6 -2 -5 -13z"/>
<path d="M12105 11250 c-13 -6 -15 -9 -5 -9 8 0 22 4 30 9 18 12 2 12 -25 0z"/>
</g>
</svg>
